<svg height="16" width="16" viewBox="0 0 16 16" fill="white" xmlns="http://www.w3.org/2000/svg">
  <path fill-rule="evenodd" d="M8 0C3.58 0 0 3.58 0 8a8.01 8.01 0 005.47 7.6c.4.07.55-.17.55-.38v-1.3c-2.22.48-2.69-.94-2.69-.94-.36-.92-.88-1.17-.88-1.17-.72-.49.05-.48.05-.48.8.06 1.22.82 1.22.82.71 1.22 1.87.87 2.33.66.07-.52.28-.87.51-1.07-1.77-.2-3.64-.88-3.64-3.93 0-.87.31-1.57.82-2.13-.08-.2-.36-1.01.08-2.1 0 0 .67-.22 2.2.82A7.59 7.59 0 018 4.63c.68 0 1.37.09 2.02.26 1.52-1.04 2.2-.82 2.2-.82.45 1.09.17 1.9.08 2.1.51.56.82 1.26.82 2.13 0 3.06-1.87 3.72-3.65 3.92.28.24.54.73.54 1.48v2.2c0 .21.15.46.56.38A8.01 8.01 0 0016 8c0-4.42-3.58-8-8-8z"/>
</svg>
